<?xml version="1.0" encoding="utf-8"?>
<!-- Generator: Adobe Illustrator 27.0.1, SVG Export Plug-In . SVG Version: 6.00 Build 0)  -->
<svg version="1.1" id="Capa_1" xmlns="http://www.w3.org/2000/svg" xmlns:xlink="http://www.w3.org/1999/xlink" x="0px" y="0px"
	 viewBox="0 0 1440 320" style="enable-background:new 0 0 1440 320;" xml:space="preserve">
<style type="text/css">
	.st0{fill:#1B355E;}
</style>
<path class="st0" d="M0,96l26.7,10.7C53.3,117,107,139,160,133.3c53.3-5.3,107-37.3,160-32c53.3,5.7,107,47.7,160,85.4
	C533.3,224,587,256,640,240c53.3-16,107-80,160-96c53.3-16,107,16,160,32c53.3,16,107,16,160-5.3c53.3-21.7,107-63.7,160-48
	c53.3,16.3,107,90.3,133,128l27,37.3V0h-26.7c-26.6,0-80.3,0-133.3,0c-53.3,0-107,0-160,0c-53.3,0-107,0-160,0c-53.3,0-107,0-160,0
	c-53.3,0-107,0-160,0c-53.3,0-107,0-160,0c-53.3,0-107,0-160,0c-53.3,0-107,0-160,0C106.7,0,53,0,27,0H0V96z"/>
</svg>
